<?xml version="1.0" encoding="utf-8"?>
<!-- Generator: Adobe Illustrator 30.1.0, SVG Export Plug-In . SVG Version: 9.03 Build 0)  -->
<svg version="1.0" id="Layer_1" xmlns="http://www.w3.org/2000/svg" xmlns:xlink="http://www.w3.org/1999/xlink" x="0px" y="0px"
	 viewBox="0 0 500 500" style="enable-background:new 0 0 500 500;" xml:space="preserve">
<g>
	<path d="M117.81,185.31L-28.57,455.46h-14.5l146.19-270.15H117.81z"/>
	<path d="M527.07,56.9L380.69,327.06h-14.5L512.38,56.9H527.07z"/>
	<path d="M165.23,232.25h-27.64l-11.69,57.37c-0.66,2.84-0.35,5.15,0.95,6.93c1.3,1.78,3.4,2.67,6.3,2.67
		c1.93,0,4.34-0.39,7.21-1.18c2.87-0.79,5.76-1.69,8.66-2.72s5.35-1.87,7.34-2.54v10.15c-1.03,0.48-2.82,1.22-5.39,2.22
		c-2.57,1-5.54,2.02-8.93,3.08c-3.38,1.06-6.84,1.96-10.38,2.72c-3.53,0.76-6.75,1.13-9.65,1.13c-7.13,0-12.45-1.59-15.95-4.76
		c-3.5-3.17-5.26-7.18-5.26-12.01c0-1.21,0.06-2.42,0.18-3.63s0.3-2.48,0.54-3.81l11.33-55.29l-13.32,1.45v-7.61l15.77-6.25
		l9.43-19.12h18.58l-3.9,20.94h25.83V232.25z"/>
	<path d="M235.61,184.22c0,2.48-0.83,5.2-2.49,8.16s-4.91,5.23-9.74,6.8l-11.87-12.78c-2.72,0-4.88,0.89-6.48,2.67
		s-2.82,3.99-3.67,6.62c-0.85,2.63-1.44,5.24-1.77,7.84c-0.33,2.6-0.56,4.68-0.68,6.25l-7.43,104.14
		c-0.48,6.83-2.46,13.17-5.94,19.03c-3.47,5.86-8.58,10.56-15.32,14.09c-6.74,3.53-15.24,5.3-25.51,5.3
		c-4.41,0-7.99-1.03-10.74-3.08s-4.12-4.74-4.12-8.07c0-2.42,0.85-5.12,2.54-8.11c1.69-2.99,4.92-5.24,9.7-6.75l11.69,12.69
		c2.72,0,4.89-0.89,6.53-2.67c1.63-1.78,2.89-3.97,3.76-6.57s1.5-5.18,1.86-7.75c0.36-2.57,0.6-4.64,0.73-6.21l7.43-104.14
		c0.48-6.95,2.46-13.35,5.94-19.21c3.47-5.86,8.58-10.56,15.32-14.09c6.74-3.53,15.24-5.3,25.51-5.3c4.47,0,8.05,1.01,10.74,3.04
		S235.61,180.84,235.61,184.22z"/>
	<path d="M294.4,253.55c0,7.31-1.21,14.44-3.63,21.39c-2.42,6.95-5.95,13.22-10.6,18.81c-4.65,5.59-10.3,10.05-16.95,13.37
		c-6.65,3.32-14.2,4.98-22.66,4.98c-12.69,0-22.04-3.4-28.05-10.2c-6.01-6.8-9.02-15.36-9.02-25.69c0-7.25,1.16-14.4,3.49-21.43
		c2.33-7.04,5.76-13.4,10.29-19.08c4.53-5.68,10.12-10.21,16.77-13.59c6.65-3.38,14.26-5.08,22.84-5.08
		c11.42,0,20.53,3.07,27.33,9.2S294.4,241.47,294.4,253.55z M267.66,252.83c0-6.04-0.74-10.97-2.22-14.77
		c-1.48-3.81-3.22-6.62-5.21-8.43c-1.99-1.81-3.78-2.72-5.35-2.72c-2.84,0-5.72,1.34-8.66,4.03s-5.62,6.31-8.07,10.88
		c-2.45,4.56-4.43,9.74-5.94,15.54s-2.27,11.84-2.27,18.13c0,6.34,0.77,11.45,2.31,15.32c1.54,3.87,3.34,6.68,5.39,8.43
		c2.05,1.75,3.78,2.63,5.17,2.63c3.26,0,6.37-1.45,9.34-4.35c2.96-2.9,5.6-6.77,7.93-11.6c2.33-4.83,4.17-10.14,5.53-15.91
		C266.98,264.23,267.66,258.51,267.66,252.83z"/>
	<path d="M305.89,226.27h-9.52v-62.72h9.52V226.27z"/>
	<path d="M381.83,232.8c0,1.57-0.12,3.2-0.36,4.89c-0.24,1.69-1.51,3.23-3.81,4.62s-6.53,2.48-12.69,3.26
		c-2.11-2.84-4.34-6.13-6.66-9.88c-2.33-3.75-4.15-6.5-5.48-8.25c-4.53,0-8.32,1.96-11.37,5.89c-3.05,3.93-4.58,8.58-4.58,13.96
		c0,4.05,0.94,6.95,2.81,8.7c1.87,1.75,4.11,2.82,6.71,3.22c2.6,0.39,4.95,0.62,7.07,0.68v10.79c-2.54-0.12-4.8-0.18-6.8-0.18
		c-1.99,0-4.14,0-6.43,0c-3.87,0.06-7.52,1.48-10.97,4.26c-3.44,2.78-5.17,7.28-5.17,13.5c0,3.26,0.71,5.82,2.13,7.66
		c1.42,1.84,3.16,3.14,5.21,3.9c2.05,0.76,3.99,1.13,5.8,1.13c4.71,0,9.24-0.98,13.59-2.95c4.35-1.96,8.5-4.41,12.46-7.34
		c3.96-2.93,7.66-5.82,11.1-8.66v16.5c-0.66,0.54-2.19,1.53-4.58,2.95c-2.39,1.42-5.36,2.96-8.93,4.62
		c-3.56,1.66-7.49,3.08-11.78,4.26c-4.29,1.18-8.67,1.77-13.14,1.77c-12.51,0-21.95-1.8-28.32-5.39c-6.37-3.6-9.56-9.23-9.56-16.9
		c0-5.74,1.24-10.38,3.72-13.91c2.48-3.53,5.65-6.28,9.52-8.25c3.87-1.96,7.88-3.37,12.05-4.21c-3.63-1.93-6.57-4.38-8.84-7.34
		c-2.27-2.96-3.4-6.77-3.4-11.42c0-5.14,1.9-9.79,5.71-13.96s8.85-7.49,15.14-9.97c6.28-2.48,13.11-3.72,20.48-3.72h5.62
		c5.26,0,9.64,0.89,13.14,2.67c3.5,1.78,6.15,3.9,7.93,6.34C380.94,228.49,381.83,230.74,381.83,232.8z"/>
	<path d="M118.77,173.07c18.99-31.38,78.69-31.39,106.68-12.6c4.49,3.33,8.86,7.37,10.84,12.6
		C212.15,154.93,143.44,155.75,118.77,173.07L118.77,173.07z"/>
</g>
</svg>
